# xmcd
# 
# Track frame offsets:
#     150
#     17220
#     34682
#     50987
#     64267
#     82555
#     102282
#     120040
#     136280
#     150702
#     166897
#     183262
#     200310
#     216677
#     238870
#     256872
#     272832
#     289657
#     307357
#     328082
# 
# Disc length: 4713
# 
# Revision: 17
# Processed by: cddbd v1.5.2PL0 Copyright (c) Steve Scherf et al.
# Submitted via: BonkEnc v1.0.15
# 
DISCID=23126714
DTITLE=Various Artist - 80's 4
DYEAR=0
DGENRE=Pop
TTITLE0=a-ha - Take On me
TTITLE1=Madonna - Holiday
TTITLE2=J. Geils Band - Centerfold
TTITLE3=Strawberry Switchblade - Since Yesterday
TTITLE4=Belinda Carlisle - Heaven Is A Pleace On Earth
TTITLE5=Culture Club - Do You Really Want To Hurt Me
TTITLE6=Frnkie To Hollywood - Relax
TTITLE7=David Bowie - Let's Dance
TTITLE8=Genesis - Invisible Touch
TTITLE9=Fine Young Cannibals - She Drives Me Crazy
TTITLE10=Bananarama - Venus
TTITLE11=The Pretenders - Don't Get Me Wrong
TTITLE12=Sheena Easton - Modern Girl
TTITLE13=Debbie Gibson - Electric Youth
TTITLE14=Stacey Q - Two Of Hearts
TTITLE15=Rick Astley - Never Gonna Give You Up
TTITLE16=Kaja Goo Goo - Too Shy
TTITLE17=The Human League - Don't You Want Me
TTITLE18=Eurythmics - Sweet Dreams
TTITLE19=Spandau Ballet - True
EXTD=
EXTT0=
EXTT1=
EXTT2=
EXTT3=
EXTT4=
EXTT5=
EXTT6=
EXTT7=
EXTT8=
EXTT9=
EXTT10=
EXTT11=
EXTT12=
EXTT13=
EXTT14=
EXTT15=
EXTT16=
EXTT17=
EXTT18=
EXTT19=
PLAYORDER=
